<svg width="14" height="13" viewBox="0 0 14 13" fill="none" xmlns="http://www.w3.org/2000/svg">
<path d="M6.52461 0.46352C6.67429 0.00286555 7.32599 0.00286722 7.47567 0.463522L8.684 4.18237C8.75093 4.38838 8.94291 4.52786 9.15952 4.52786H13.0698C13.5541 4.52786 13.7555 5.14767 13.3637 5.43237L10.2002 7.73075C10.025 7.85807 9.95163 8.08375 10.0186 8.28976L11.2269 12.0086C11.3766 12.4693 10.8493 12.8523 10.4575 12.5676L7.29403 10.2693C7.11879 10.1419 6.88149 10.1419 6.70625 10.2693L3.5428 12.5676C3.15094 12.8523 2.6237 12.4693 2.77338 12.0086L3.98171 8.28976C4.04864 8.08375 3.97531 7.85807 3.80007 7.73075L0.636623 5.43237C0.244765 5.14767 0.446153 4.52786 0.930515 4.52786H4.84075C5.05736 4.52786 5.24934 4.38838 5.31628 4.18237L6.52461 0.46352Z" fill="#F3F3F3"/>
</svg>
