<svg width="24" height="24" viewBox="0 0 24 24" fill="none" xmlns="http://www.w3.org/2000/svg">
<g id="Icon-Close">
<path id="Vector" d="M19.1943 6.41714C19.6393 5.97216 19.6393 5.2507 19.1943 4.80571C18.7493 4.36073 18.0278 4.36073 17.5829 4.80571L12 10.3886L6.41714 4.80572C5.97216 4.36073 5.2507 4.36073 4.80571 4.80571C4.36073 5.2507 4.36073 5.97216 4.80571 6.41714L10.3886 12L4.80572 17.5829C4.36073 18.0278 4.36073 18.7493 4.80571 19.1943C5.2507 19.6393 5.97216 19.6393 6.41714 19.1943L12 13.6114L17.5829 19.1943C18.0278 19.6393 18.7493 19.6393 19.1943 19.1943C19.6393 18.7493 19.6393 18.0278 19.1943 17.5829L13.6114 12L19.1943 6.41714Z" fill="#292929"/>
</g>
</svg>
