<svg width="120" height="14" viewBox="0 0 120 14" fill="none" xmlns="http://www.w3.org/2000/svg">
<g id="logo">
<g id="XMLID_234_">
<path id="XMLID_243_" d="M9.42311 1.52882V8.16343C9.42311 10.375 8.46157 11.2884 6.15387 11.2884C3.84618 11.2884 2.88464 10.375 2.88464 8.16343V1.24036H0.673105C0.528874 1.24036 0.384644 1.38459 0.384644 1.52882V8.25959C0.384644 11.9615 2.74041 13.2596 6.15387 13.2596C9.56734 13.2596 11.9231 11.9615 11.9231 8.25959V1.24036H9.71157C9.56734 1.24036 9.42311 1.33651 9.42311 1.52882Z" fill="black"/>
<path id="XMLID_242_" d="M41.5865 3.16343C41.7789 3.16343 41.875 3.11536 41.9231 2.97113L42.5481 1.38459C42.5962 1.28843 42.5481 1.24036 42.4519 1.24036H33.5096C32.6923 1.24036 32.3558 1.48074 32.3558 2.05766V12.3461C32.3558 12.8269 32.5962 13.0673 33.2212 13.0673H41.5385C41.7308 13.0673 41.8269 13.0192 41.875 12.875L42.5 11.2884C42.5481 11.1923 42.5 11.1442 42.4039 11.1442H34.8077V9.02882C34.8077 8.30766 35.1923 7.97113 36.2981 7.97113H39.6154C39.8077 7.97113 39.9039 7.92305 39.9519 7.77882L40.5769 6.24036C40.625 6.1442 40.5769 6.09613 40.4808 6.09613H34.8558V3.11536H41.5865V3.16343Z" fill="black"/>
<path id="XMLID_238_" fill-rule="evenodd" clip-rule="evenodd" d="M25.8654 6.81728C26.827 6.28843 27.2116 5.37497 27.2116 4.22113C27.2116 1.62497 25.0962 1.24036 22.8847 1.24036H17.8366C17.0193 1.24036 16.6827 1.48074 16.6827 2.05766V12.3461C16.6827 12.8269 16.9231 13.0673 17.5481 13.0673H23.75C26.1058 13.0673 27.7404 12.1538 27.7404 9.79805C27.7885 8.35574 27.2116 7.15382 25.8654 6.81728ZM19.1827 3.11536H23.077C24.375 3.11536 24.7597 3.59613 24.7597 4.60574C24.7597 5.61536 24.375 6.09613 23.077 6.09613H19.1827V3.11536ZM19.1827 11.1442H23.5577C24.952 11.1442 25.3366 10.6634 25.3366 9.55766C25.3366 8.4519 24.952 7.92305 23.5577 7.92305H20.6731C19.5674 7.92305 19.1827 8.25959 19.1827 8.98074V11.1442Z" fill="black"/>
<path id="XMLID_235_" fill-rule="evenodd" clip-rule="evenodd" d="M55.3846 8.30766L58.0288 12.875C58.0769 12.923 58.0769 13.0673 57.9808 13.0673H55.7212C55.5288 13.0673 55.4808 13.0192 55.3846 12.875L52.9808 8.54805H50.8173C49.7115 8.54805 49.3269 8.88459 49.3269 9.60574V13.0673H47.1635C47.0192 13.0673 46.875 12.923 46.875 12.7788V2.05766C46.875 1.48074 47.2115 1.24036 48.0288 1.24036H53.0769C56.0096 1.24036 57.7885 2.00959 57.7885 4.8942C57.7885 7.10574 56.6827 7.97113 55.3846 8.30766ZM49.2788 6.72113H53.4135C54.9519 6.72113 55.2885 6.1442 55.2885 4.8942C55.2885 3.69228 54.9519 3.11536 53.4135 3.11536H49.2788V6.72113Z" fill="black"/>
</g>
<g id="XMLID_224_">
<path id="XMLID_232_" d="M76.4424 12.0096L76.3943 13.0673H67.6443V1.24036H76.0577L76.1058 2.34613H68.8462V6.43266H75.0962V7.3942H68.8462V12.0096H76.4424Z" fill="#57AD56" stroke="#57AD56" stroke-width="0.25"/>
<g id="XMLID_229_">
<path fill-rule="evenodd" clip-rule="evenodd" d="M83.702 9.99036H90.6731L92.0193 13.0673H93.3654L87.9327 1.24036H86.5385L81.0577 13.0673H82.3558L83.702 9.99036ZM84.1347 8.98074L86.6827 3.25959L87.1635 2.05766H87.2116L87.6924 3.25959L90.1924 8.98074H84.1347Z" fill="#57AD56"/>
<path d="M90.6731 9.99036L90.7876 9.94025L90.7549 9.86536H90.6731V9.99036ZM83.702 9.99036V9.86536H83.6202L83.5875 9.94025L83.702 9.99036ZM92.0193 13.0673L91.9048 13.1174L91.9375 13.1923H92.0193V13.0673ZM93.3654 13.0673V13.1923H93.5604L93.479 13.0151L93.3654 13.0673ZM87.9327 1.24036L88.0463 1.18818L88.0129 1.11536H87.9327V1.24036ZM86.5385 1.24036V1.11536H86.4587L86.4251 1.1878L86.5385 1.24036ZM81.0577 13.0673L80.9443 13.0147L80.862 13.1923H81.0577V13.0673ZM82.3558 13.0673V13.1923H82.4376L82.4703 13.1174L82.3558 13.0673ZM86.6827 3.25959L86.797 3.31048L86.7988 3.30601L86.6827 3.25959ZM84.1347 8.98074L84.0205 8.92989L83.9422 9.10574H84.1347V8.98074ZM87.1635 2.05766V1.93266H87.0789L87.0474 2.01124L87.1635 2.05766ZM87.2116 2.05766L87.3276 2.01124L87.2962 1.93266H87.2116V2.05766ZM87.6924 3.25959L87.5762 3.30603L87.5778 3.30964L87.6924 3.25959ZM90.1924 8.98074V9.10574H90.3834L90.3069 8.93069L90.1924 8.98074ZM90.6731 9.86536H83.702V10.1154H90.6731V9.86536ZM92.1338 13.0172L90.7876 9.94025L90.5586 10.0405L91.9048 13.1174L92.1338 13.0172ZM93.3654 12.9423H92.0193V13.1923H93.3654V12.9423ZM87.8191 1.29253L93.2518 13.1195L93.479 13.0151L88.0463 1.18818L87.8191 1.29253ZM86.5385 1.36536H87.9327V1.11536H86.5385V1.36536ZM81.1712 13.1198L86.6519 1.29291L86.4251 1.1878L80.9443 13.0147L81.1712 13.1198ZM82.3558 12.9423H81.0577V13.1923H82.3558V12.9423ZM83.5875 9.94025L82.2413 13.0172L82.4703 13.1174L83.8165 10.0405L83.5875 9.94025ZM86.5686 3.20873L84.0205 8.92989L84.2488 9.0316L86.7969 3.31044L86.5686 3.20873ZM87.0474 2.01124L86.5667 3.21316L86.7988 3.30601L87.2796 2.10409L87.0474 2.01124ZM87.2116 1.93266H87.1635V2.18266H87.2116V1.93266ZM87.8084 3.21316L87.3276 2.01124L87.0955 2.10409L87.5763 3.30601L87.8084 3.21316ZM90.3069 8.93069L87.8069 3.20954L87.5778 3.30964L90.0778 9.03079L90.3069 8.93069ZM84.1347 9.10574H90.1924V8.85574H84.1347V9.10574Z" fill="#57AD56"/>
</g>
<path id="XMLID_227_" d="M102.019 2.34613V13.0673H100.817V2.34613H96.3943L96.4424 1.24036H106.49V2.34613H102.019Z" fill="#57AD56" stroke="#57AD56" stroke-width="0.25"/>
<path id="XMLID_225_" d="M115.048 13.3077C113.414 13.3077 112.115 12.9231 111.058 12.2981L111.25 11.2404C112.356 11.8654 113.606 12.25 115.096 12.25C117.308 12.25 118.462 11.2404 118.462 9.79808C118.462 6.67308 111.25 8.30769 111.25 4.26923C111.25 2.53846 112.548 1 115.577 1C116.971 1 118.221 1.24038 119.231 1.72115L119.039 2.73077C117.933 2.29808 116.875 2.05769 115.625 2.05769C113.269 2.05769 112.404 3.11538 112.404 4.17308C112.404 7.15385 119.615 5.47115 119.615 9.70192C119.567 11.8173 118.029 13.3077 115.048 13.3077Z" fill="#57AD56" stroke="#57AD56" stroke-width="0.25"/>
</g>
</g>
</svg>
