<svg width="14" height="13" viewBox="0 0 14 13" fill="none" xmlns="http://www.w3.org/2000/svg">
<path d="M6.52455 0.46352C6.67423 0.00286555 7.32593 0.00286722 7.47561 0.463522L8.68394 4.18237C8.75087 4.38838 8.94285 4.52786 9.15946 4.52786H13.0697C13.5541 4.52786 13.7555 5.14767 13.3636 5.43237L10.2001 7.73075C10.0249 7.85807 9.95157 8.08375 10.0185 8.28976L11.2268 12.0086C11.3765 12.4693 10.8493 12.8523 10.4574 12.5676L7.29397 10.2693C7.11873 10.1419 6.88143 10.1419 6.70618 10.2693L3.54274 12.5676C3.15088 12.8523 2.62364 12.4693 2.77331 12.0086L3.98164 8.28976C4.04858 8.08375 3.97525 7.85807 3.80001 7.73075L0.636562 5.43237C0.244704 5.14767 0.446092 4.52786 0.930454 4.52786H4.84069C5.0573 4.52786 5.24928 4.38838 5.31622 4.18237L6.52455 0.46352Z" fill="#FFDE6A"/>
</svg>
