<svg viewBox="0 0 16.0001 16" xmlns="http://www.w3.org/2000/svg" xmlns:xlink="http://www.w3.org/1999/xlink" width="16.000061" height="16.000000" fill="none" customFrame="#000000">
	<path id="Star" d="M7.52449 1.46352C7.67416 1.00287 8.32587 1.00287 8.47554 1.46352L9.68388 5.18237C9.75081 5.38838 9.94279 5.52786 10.1594 5.52786L14.0696 5.52786C14.554 5.52786 14.7554 6.14767 14.3635 6.43237L11.2001 8.73075C11.0248 8.85807 10.9515 9.08375 11.0184 9.28976L12.2268 13.0086C12.3765 13.4693 11.8492 13.8523 11.4574 13.5676L8.29391 11.2693C8.11866 11.1419 7.88137 11.1419 7.70612 11.2693L4.54267 13.5676C4.15082 13.8523 3.62358 13.4693 3.77325 13.0086L4.98158 9.28976C5.04852 9.08375 4.97519 8.85807 4.79995 8.73075L1.6365 6.43237C1.24464 6.14767 1.44603 5.52786 1.93039 5.52786L5.84063 5.52786C6.05724 5.52786 6.24922 5.38838 6.31616 5.18237L7.52449 1.46352Z" fill="rgb(243.312,243.312,243.312)" fill-rule="nonzero" />
</svg>
