<svg width="14" height="13" viewBox="0 0 14 13" fill="none" xmlns="http://www.w3.org/2000/svg">
<path d="M6.52449 0.46352C6.67416 0.00286555 7.32587 0.00286722 7.47554 0.463522L8.68388 4.18237C8.75081 4.38838 8.94279 4.52786 9.1594 4.52786H13.0696C13.554 4.52786 13.7554 5.14767 13.3635 5.43237L10.2001 7.73075C10.0248 7.85807 9.95151 8.08375 10.0184 8.28976L11.2268 12.0086C11.3765 12.4693 10.8492 12.8523 10.4574 12.5676L7.29391 10.2693C7.11866 10.1419 6.88137 10.1419 6.70612 10.2693L3.54267 12.5676C3.15082 12.8523 2.62358 12.4693 2.77325 12.0086L3.98158 8.28976C4.04852 8.08375 3.97519 7.85807 3.79995 7.73075L0.6365 5.43237C0.244643 5.14767 0.446031 4.52786 0.930393 4.52786H4.84063C5.05724 4.52786 5.24922 4.38838 5.31616 4.18237L6.52449 0.46352Z" fill="#FFDE6A"/>
</svg>
