<svg width="96" height="16" viewBox="0 0 96 16" fill="none" xmlns="http://www.w3.org/2000/svg">
<rect width="96" height="16" fill="#E5E5E5"/>
<g id="Card">
<g id="Card_2">
<rect id="Rectangle 3" x="-16.5" y="-276.5" width="199" height="407" rx="5.5" fill="white" stroke="#F3F3F3"/>
<g id="Group 1">
<g id="Review">
<g id="Stars">
<path id="Star" d="M7.52447 1.46352C7.67415 1.00287 8.32585 1.00287 8.47553 1.46352L9.68386 5.18236C9.75079 5.38837 9.94277 5.52785 10.1594 5.52785H14.0696C14.554 5.52785 14.7554 6.14766 14.3635 6.43236L11.2001 8.73073C11.0248 8.85805 10.9515 9.08373 11.0184 9.28975L12.2268 13.0086C12.3764 13.4692 11.8492 13.8523 11.4573 13.5676L8.29389 11.2692C8.11865 11.1419 7.88135 11.1419 7.70611 11.2692L4.54267 13.5676C4.15081 13.8523 3.62357 13.4692 3.77325 13.0086L4.98157 9.28975C5.04851 9.08373 4.97518 8.85805 4.79994 8.73073L1.6365 6.43236C1.24464 6.14766 1.44603 5.52785 1.93039 5.52785H5.84062C6.05723 5.52785 6.24921 5.38837 6.31614 5.18236L7.52447 1.46352Z" fill="#FFDE6A"/>
<path id="Star_2" d="M27.5245 1.46352C27.6742 1.00287 28.3259 1.00287 28.4755 1.46352L29.6839 5.18237C29.7508 5.38838 29.9428 5.52786 30.1594 5.52786H34.0696C34.554 5.52786 34.7554 6.14767 34.3635 6.43237L31.2001 8.73075C31.0248 8.85807 30.9515 9.08375 31.0184 9.28976L32.2268 13.0086C32.3765 13.4693 31.8492 13.8523 31.4574 13.5676L28.2939 11.2693C28.1187 11.1419 27.8814 11.1419 27.7061 11.2693L24.5427 13.5676C24.1508 13.8523 23.6236 13.4693 23.7733 13.0086L24.9816 9.28976C25.0485 9.08375 24.9752 8.85807 24.7999 8.73075L21.6365 6.43237C21.2446 6.14767 21.446 5.52786 21.9304 5.52786H25.8406C26.0572 5.52786 26.2492 5.38838 26.3162 5.18237L27.5245 1.46352Z" fill="#FFDE6A"/>
<path id="Star_3" d="M47.5245 1.46352C47.6742 1.00287 48.3259 1.00287 48.4755 1.46352L49.6839 5.18237C49.7508 5.38838 49.9428 5.52786 50.1594 5.52786H54.0696C54.554 5.52786 54.7554 6.14767 54.3635 6.43237L51.2001 8.73075C51.0248 8.85807 50.9515 9.08375 51.0184 9.28976L52.2268 13.0086C52.3765 13.4693 51.8492 13.8523 51.4574 13.5676L48.2939 11.2693C48.1187 11.1419 47.8814 11.1419 47.7061 11.2693L44.5427 13.5676C44.1508 13.8523 43.6236 13.4693 43.7733 13.0086L44.9816 9.28976C45.0485 9.08375 44.9752 8.85807 44.7999 8.73075L41.6365 6.43237C41.2446 6.14767 41.446 5.52786 41.9304 5.52786H45.8406C46.0572 5.52786 46.2492 5.38838 46.3162 5.18237L47.5245 1.46352Z" fill="#FFDE6A"/>
<path id="Star_4" d="M67.5245 1.46352C67.6742 1.00287 68.3259 1.00287 68.4756 1.46352L69.6839 5.18237C69.7509 5.38838 69.9429 5.52786 70.1595 5.52786H74.0697C74.5541 5.52786 74.7555 6.14767 74.3636 6.43237L71.2001 8.73075C71.0249 8.85807 70.9516 9.08375 71.0185 9.28976L72.2268 13.0086C72.3765 13.4693 71.8493 13.8523 71.4574 13.5676L68.294 11.2693C68.1187 11.1419 67.8814 11.1419 67.7062 11.2693L64.5427 13.5676C64.1509 13.8523 63.6236 13.4693 63.7733 13.0086L64.9816 9.28976C65.0486 9.08375 64.9753 8.85807 64.8 8.73075L61.6366 6.43237C61.2447 6.14767 61.4461 5.52786 61.9305 5.52786H65.8407C66.0573 5.52786 66.2493 5.38838 66.3162 5.18237L67.5245 1.46352Z" fill="#FFDE6A"/>
<path id="Star_5" d="M87.5246 1.46352C87.6743 1.00287 88.326 1.00287 88.4757 1.46352L89.684 5.18237C89.7509 5.38838 89.9429 5.52786 90.1595 5.52786H94.0698C94.5541 5.52786 94.7555 6.14767 94.3637 6.43237L91.2002 8.73075C91.025 8.85807 90.9516 9.08375 91.0186 9.28976L92.2269 13.0086C92.3766 13.4693 91.8493 13.8523 91.4575 13.5676L88.294 11.2693C88.1188 11.1419 87.8815 11.1419 87.7062 11.2693L84.5428 13.5676C84.1509 13.8523 83.6237 13.4693 83.7734 13.0086L84.9817 9.28976C85.0486 9.08375 84.9753 8.85807 84.8001 8.73075L81.6366 6.43237C81.2448 6.14767 81.4462 5.52786 81.9305 5.52786H85.8408C86.0574 5.52786 86.2493 5.38838 86.3163 5.18237L87.5246 1.46352Z" fill="#F3F3F3"/>
</g>
</g>
</g>
</g>
</g>
</svg>
