<?xml version="1.0"?>
<svg width="13" height="12" xmlns="http://www.w3.org/2000/svg" xmlns:svg="http://www.w3.org/2000/svg">
 <g class="layer">
  <title>Layer 1</title>
  <path d="m5.81,0.34a0.52,0.52 0 0 1 0.98,0l1.13,3.47a0.52,0.52 0 0 0 0.49,0.36l3.66,0c0.5,0 0.71,0.64 0.3,0.93l-2.96,2.15a0.52,0.52 0 0 0 -0.18,0.58l1.13,3.47a0.52,0.52 0 0 1 -0.8,0.58l-2.96,-2.15a0.52,0.52 0 0 0 -0.6,0l-2.96,2.15a0.52,0.52 0 0 1 -0.79,-0.58l1.13,-3.47a0.52,0.52 0 0 0 -0.19,-0.58l-2.96,-2.15a0.52,0.52 0 0 1 0.31,-0.93l3.65,0a0.52,0.52 0 0 0 0.49,-0.36l1.13,-3.47z" fill="#bfbfbf" id="svg_1"/>
 </g>
</svg>