<svg width="14" height="13" viewBox="0 0 14 13" fill="none" xmlns="http://www.w3.org/2000/svg">
<path d="M6.52447 0.463521C6.67415 0.00286651 7.32585 0.00286722 7.47553 0.463522L8.68386 4.18236C8.75079 4.38837 8.94277 4.52785 9.15938 4.52785H13.0696C13.554 4.52785 13.7554 5.14766 13.3635 5.43236L10.2001 7.73073C10.0248 7.85805 9.95149 8.08373 10.0184 8.28975L11.2268 12.0086C11.3764 12.4692 10.8492 12.8523 10.4573 12.5676L7.29389 10.2692C7.11865 10.1419 6.88135 10.1419 6.70611 10.2692L3.54267 12.5676C3.15081 12.8523 2.62357 12.4692 2.77325 12.0086L3.98157 8.28975C4.04851 8.08373 3.97518 7.85805 3.79994 7.73073L0.636501 5.43236C0.244644 5.14766 0.44603 4.52785 0.930392 4.52785H4.84062C5.05723 4.52785 5.24921 4.38837 5.31614 4.18236L6.52447 0.463521Z" fill="#F3F3F3"/>
</svg>
