<svg width="192" height="21" viewBox="0 0 192 21" fill="none" xmlns="http://www.w3.org/2000/svg">
<g id="white-logo">
<g id="XMLID_234_">
<path id="XMLID_243_" d="M15.0769 1.84618V12.4616C15.0769 16 13.5384 17.4616 9.84613 17.4616C6.15382 17.4616 4.61536 16 4.61536 12.4616V1.38464H1.07689C0.846126 1.38464 0.615356 1.61541 0.615356 1.84618V12.6154C0.615356 18.5385 4.38459 20.6154 9.84613 20.6154C15.3077 20.6154 19.0769 18.5385 19.0769 12.6154V1.38464H15.5384C15.3077 1.38464 15.0769 1.53849 15.0769 1.84618Z" fill="white"/>
<path id="XMLID_242_" d="M66.5385 4.46157C66.8461 4.46157 67 4.38464 67.0769 4.15387L68.0769 1.61541C68.1538 1.46157 68.0769 1.38464 67.9231 1.38464H53.6154C52.3077 1.38464 51.7692 1.76926 51.7692 2.69234V19.1539C51.7692 19.9231 52.1538 20.3077 53.1538 20.3077H66.4615C66.7692 20.3077 66.9231 20.2308 67 20L68 17.4616C68.0769 17.3077 68 17.2308 67.8461 17.2308H55.6923V13.8462C55.6923 12.6923 56.3077 12.1539 58.0769 12.1539H63.3846C63.6923 12.1539 63.8461 12.077 63.9231 11.8462L64.9231 9.38464C65 9.2308 64.9231 9.15387 64.7692 9.15387H55.7692V4.38464H66.5385V4.46157Z" fill="white"/>
<path id="XMLID_238_" fill-rule="evenodd" clip-rule="evenodd" d="M41.3846 10.3077C42.923 9.46157 43.5384 8.00003 43.5384 6.15387C43.5384 2.00003 40.1538 1.38464 36.6153 1.38464H28.5384C27.2307 1.38464 26.6923 1.76926 26.6923 2.69234V19.1539C26.6923 19.9231 27.0769 20.3077 28.0769 20.3077H38C41.7692 20.3077 44.3846 18.8462 44.3846 15.077C44.4615 12.7693 43.5384 10.8462 41.3846 10.3077ZM30.6923 4.38464H36.923C39 4.38464 39.6153 5.15387 39.6153 6.76926C39.6153 8.38464 39 9.15387 36.923 9.15387H30.6923V4.38464ZM30.6923 17.2308H37.6923C39.923 17.2308 40.5384 16.4616 40.5384 14.6923C40.5384 12.9231 39.923 12.077 37.6923 12.077H33.0769C31.3076 12.077 30.6923 12.6154 30.6923 13.7693V17.2308Z" fill="white"/>
<path id="XMLID_235_" fill-rule="evenodd" clip-rule="evenodd" d="M88.6154 12.6923L92.8462 20C92.9231 20.077 92.9231 20.3077 92.7692 20.3077H89.1538C88.8462 20.3077 88.7692 20.2308 88.6154 20L84.7692 13.077H81.3077C79.5385 13.077 78.9231 13.6154 78.9231 14.7693V20.3077H75.4615C75.2308 20.3077 75 20.077 75 19.8462V2.69234C75 1.76926 75.5385 1.38464 76.8462 1.38464H84.9231C89.6154 1.38464 92.4615 2.61541 92.4615 7.2308C92.4615 10.7693 90.6923 12.1539 88.6154 12.6923ZM78.8462 10.1539H85.4615C87.9231 10.1539 88.4615 9.2308 88.4615 7.2308C88.4615 5.30772 87.9231 4.38464 85.4615 4.38464H78.8462V10.1539Z" fill="white"/>
</g>
<g id="XMLID_224_">
<path id="XMLID_232_" d="M122.308 18.6154L122.231 20.3077H108.231V1.38464H121.692L121.769 3.15387H110.154V9.69234H120.154V11.2308H110.154V18.6154H122.308Z" fill="#57AD56" stroke="#57AD56" stroke-width="0.25"/>
<g id="XMLID_229_">
<path fill-rule="evenodd" clip-rule="evenodd" d="M133.923 15.3846H145.077L147.231 20.3077H149.385L140.692 1.38464H138.462L129.692 20.3077H131.769L133.923 15.3846ZM134.615 13.7693L138.692 4.61541L139.462 2.69234H139.538L140.308 4.61541L144.308 13.7693H134.615Z" fill="#57AD56"/>
<path d="M145.077 15.3846L145.191 15.3345L145.159 15.2596H145.077V15.3846ZM133.923 15.3846V15.2596H133.841L133.809 15.3345L133.923 15.3846ZM147.231 20.3077L147.116 20.3578L147.149 20.4327H147.231V20.3077ZM149.385 20.3077V20.4327H149.58L149.498 20.2555L149.385 20.3077ZM140.692 1.38464L140.806 1.33247L140.772 1.25964H140.692V1.38464ZM138.462 1.38464V1.25964H138.382L138.348 1.33209L138.462 1.38464ZM129.692 20.3077L129.579 20.2552L129.497 20.4327H129.692V20.3077ZM131.769 20.3077V20.4327H131.851L131.884 20.3578L131.769 20.3077ZM138.692 4.61541L138.807 4.66631L138.808 4.66184L138.692 4.61541ZM134.615 13.7693L134.501 13.7184L134.423 13.8943H134.615V13.7693ZM139.462 2.69234V2.56734H139.377L139.345 2.64591L139.462 2.69234ZM139.538 2.69234L139.655 2.64591L139.623 2.56734H139.538V2.69234ZM140.308 4.61541L140.192 4.66186L140.193 4.66546L140.308 4.61541ZM144.308 13.7693V13.8943H144.499L144.422 13.7192L144.308 13.7693ZM145.077 15.2596H133.923V15.5096H145.077V15.2596ZM147.345 20.2576L145.191 15.3345L144.962 15.4347L147.116 20.3578L147.345 20.2576ZM149.385 20.1827H147.231V20.4327H149.385V20.1827ZM140.579 1.43682L149.271 20.3599L149.498 20.2555L140.806 1.33247L140.579 1.43682ZM138.462 1.50964H140.692V1.25964H138.462V1.50964ZM129.806 20.3603L138.575 1.4372L138.348 1.33209L129.579 20.2552L129.806 20.3603ZM131.769 20.1827H129.692V20.4327H131.769V20.1827ZM133.809 15.3345L131.655 20.2576L131.884 20.3578L134.038 15.4347L133.809 15.3345ZM138.578 4.56456L134.501 13.7184L134.73 13.8201L138.806 4.66627L138.578 4.56456ZM139.345 2.64591L138.576 4.56899L138.808 4.66184L139.578 2.73876L139.345 2.64591ZM139.538 2.56734H139.462V2.81734H139.538V2.56734ZM140.424 4.56899L139.655 2.64591L139.422 2.73876L140.192 4.66184L140.424 4.56899ZM144.422 13.7192L140.422 4.56536L140.193 4.66546L144.193 13.8193L144.422 13.7192ZM134.615 13.8943H144.308V13.6443H134.615V13.8943Z" fill="#57AD56"/>
</g>
<path id="XMLID_227_" d="M163.231 3.15387V20.3077H161.308V3.15387H154.231L154.308 1.38464H170.385V3.15387H163.231Z" fill="#57AD56" stroke="#57AD56" stroke-width="0.25"/>
<path id="XMLID_225_" d="M184.077 20.6923C181.462 20.6923 179.385 20.0769 177.692 19.0769L178 17.3846C179.769 18.3846 181.769 19 184.154 19C187.692 19 189.538 17.3846 189.538 15.0769C189.538 10.0769 178 12.6923 178 6.23077C178 3.46154 180.077 1 184.923 1C187.154 1 189.154 1.38462 190.769 2.15385L190.462 3.76923C188.692 3.07692 187 2.69231 185 2.69231C181.231 2.69231 179.846 4.38462 179.846 6.07692C179.846 10.8462 191.385 8.15385 191.385 14.9231C191.308 18.3077 188.846 20.6923 184.077 20.6923Z" fill="#57AD56" stroke="#57AD56" stroke-width="0.25"/>
</g>
</g>
</svg>
